<svg xmlns="http://www.w3.org/2000/svg" width="64" height="64" viewBox="0 0 64 64">
  <defs>
    <style>
      .cls-1 {
        fill: #fce1dc;
      }

      .cls-2 {
        fill: #ff5e59;
      }

      .cls-3 {
        fill: #fff;
      }

      .cls-4 {
        fill: none;
        stroke: #3b5473;
        stroke-miterlimit: 10;
      }
    </style>
  </defs>
  <title>i-Experience</title>
  <g id="fill_under" data-name="fill under">
    <g>
      <path class="cls-1" d="M15.42,31.56a14.15,14.15,0,0,1,1-5.61s-5.24-2.85-6.22-2.54-2.36,5.37-2.29,8.2c.07,3,1.22,7.45,2.3,7.63S16.59,37,16.59,37A14.37,14.37,0,0,1,15.42,31.56Z"/>
      <path class="cls-1" d="M28.89,17.2a16.77,16.77,0,0,1,6.59.7s3.22-5.73,2.88-6.46c-.77-1.65-6.21-1.89-10-1.6-2.48.19-5.92.45-6.2,2s2.28,6.32,2.28,6.32A16.61,16.61,0,0,1,28.89,17.2Z"/>
      <path class="cls-1" d="M51.71,29.26c-.24-2.21-1.36-5.85-2.45-5.85s-5.87,2.53-5.87,2.53a19.06,19.06,0,0,1,.9,4.07,14.94,14.94,0,0,1-.79,7.05s6.32,3.06,7,2.89S52.16,33.37,51.71,29.26Z"/>
      <path class="cls-1" d="M31.11,45.77a14.27,14.27,0,0,1-6.61-1.13s-3.22,5.91-2.8,6.8,6.71,2,10,1.71c2.15-.16,6.16-1.6,6.16-2.24a59.21,59.21,0,0,0-2.5-6.09A15.62,15.62,0,0,1,31.11,45.77Z"/>
      <path class="cls-1" d="M29.91,31.49s-4.58-13.13-6.32-13.21-6.9,5.36-7.14,7.67c-.11,1.09,13.46,5.54,13.46,5.54Z"/>
      <path class="cls-1" d="M35.61,44.64c1.31,0,8-5.58,7.84-7.34s-13.54-5.81-13.54-5.81S34.3,44.64,35.61,44.64Z"/>
      <path class="cls-1" d="M35.19,17.9c-.89.19-5.28,13.59-5.28,13.59h0l14-5.76C42.53,21.7,36.08,17.7,35.19,17.9Z"/>
      <path class="cls-1" d="M16.87,36.74c-.43,1.12,5.41,7.75,8.05,7.63.94,0,5-12.88,5-12.88S17.3,35.62,16.87,36.74Z"/>
    </g>
  </g>
  <g id="Fill">
    <path class="cls-2" d="M35.94,30.86a5.77,5.77,0,0,1-5.53,6.62,6.19,6.19,0,0,1-6.58-6,5.85,5.85,0,0,1,5.65-6C33.38,25.19,35.57,27.46,35.94,30.86Z"/>
    <path class="cls-3" d="M50.05,15.41c.73-2.69,1-4.61,2.43-6.15S57.2,6.57,57.68,7s-2.5,7.65-2.77,6.51,6.66-.49,6.85.14-2.52,3.84-5.55,4.1c-1.41.12-4.76-.87-6.33-.86-10.43.53-18,4.08-18.16,13C40.39,34,48.38,21.54,50.05,15.41Z"/>
    <path class="cls-2" d="M33.29,22.68a6.11,6.11,0,0,0,.89,4.61,6.26,6.26,0,0,0,3.93,2.63l2.57-1.28a8.78,8.78,0,0,1-3.76-3.08A9.46,9.46,0,0,1,35.77,21Z"/>
    <path class="cls-2" d="M57.53,7c.83.83-2.14,6-2.14,6s5.36-.22,6.23.65-3.89,3.79-4.72,3.95-7.17-.72-7.17-.72,1-6.53,2.75-7.65A31.44,31.44,0,0,1,57.53,7"/>
  </g>
  <g id="Stroke">
    <path class="cls-4" d="M44.29,30c1.12,10.23-6.5,15.25-13.18,15.76-7.2.56-15.48-5-15.69-14.21-.16-6.44,4.25-13.66,13.47-14.36a15,15,0,0,1,9.47,2.05"/>
    <path class="cls-4" d="M48.61,19.45a42.5,42.5,0,0,1,3.07,9.81c1.7,15.49-9.2,22.94-19.95,23.86S8.3,45.55,8,31.61c-.23-9.75,6.44-20.68,20.4-21.74,7.89-.6,13.28,1.51,16.93,5.15"/>
    <path class="cls-4" d="M50.05,15.41c.72-2.69,1-4.61,2.43-6.15S57.2,6.57,57.68,7s-2.5,7.65-2.77,6.51,6.66-.49,6.85.14-2.52,3.84-5.55,4.1c-1.41.12-4.76-.87-6.33-.86-10,.51-17.26,3-18,11.12,0,.33-.15,1.55-.16,1.91,0,1.16-2,1.71-2.31,1.34s1.09-1.56,2.31-1.34C44.39,32.21,48.79,20.11,50.05,15.41Z"/>
  </g>
</svg>
