<svg xmlns="http://www.w3.org/2000/svg" width="64" height="64" viewBox="0 0 64 64">
  <defs>
    <style>
      .cls-1 {
        fill: #fff;
      }

      .cls-2 {
        fill: #ff5e59;
      }

      .cls-3, .cls-4 {
        fill: none;
        stroke-miterlimit: 10;
      }

      .cls-3 {
        stroke: #fff;
      }

      .cls-4 {
        stroke: #3b5473;
      }
    </style>
  </defs>
  <title>i-Collage-Universities</title>
  <g id="Fill">
    <path class="cls-1" d="M10.74,8.83C10,9.75,12.54,11,15.45,11c10.88,0,32.74-.85,33.51-.09,1.62,1.58,1,16.52,1,24.91,0,9.55-14.24,20.8-17.14,20.52-2.32-.22-18.73-7-19.52-19.73-.57-9.26-.14-19.29-.27-24.09C13,9.73,11.47,7.94,10.74,8.83Z"/>
    <path class="cls-2" d="M31.53,10.57c-.18,3-.48,19.57.19,20.2.82.78,14.75.12,18.44-.36,1-.13.24-17.91-.6-19.3C49.13,10.4,31.59,9.59,31.53,10.57Z"/>
    <path class="cls-2" d="M13,31.29c.86-1.43,18-1,18.71-.41s1,22.7.47,25.31c-.37,2-15.91-7.2-17.61-14.42C13.75,38.43,12.41,32.2,13,31.29Z"/>
    <path class="cls-3" d="M35.62,22.22c4.12-2.49,6.19-4.9,5.37-5.63s-5.52,7.64-4.69,8.34c1.45,1.25,7-1.95,7.25-2.64.13-.36-.55-.8-1.11.22-.45.82-.73,2.65.22,2.71s4.36-1.71,4.22.63"/>
    <path class="cls-3" d="M18,39.86c4.12-2.49,6.19-4.9,5.37-5.64s-5.52,7.64-4.69,8.35c1.45,1.25,7-2,7.25-2.64.14-.36-.54-.8-1.11.21-.45.82-.73,2.66.22,2.72s4.36-1.71,4.22.62"/>
  </g>
  <g id="Stroke">
    <path class="cls-4" d="M10.74,8.83C10,9.75,12.54,11,15.45,11,26.33,11,48.28,10,49,10.86c.82,1,1.2,15.49,1.08,23.88-.2,13.54-13.54,21.89-17.17,22-2.33.09-18.74-7.43-19.53-20.2-.57-9.26-.14-19.29-.27-24.09C13,9.73,11.47,7.94,10.74,8.83Z"/>
    <path class="cls-4" d="M27.77,25.08c-.22,1.12-2.09,2.54-4.74,2.64a5.81,5.81,0,0,1-6-5.81c-.05-3.15,1.4-5.4,4.07-6.34,3.44-1.21,5.92.57,6.18,2,.61,3.38-1.52,1.13.26-2.69"/>
    <g>
      <path class="cls-4" d="M33.85,34.65c1.22.46,4.6.41,4.63-.06.06-.73-2.3-1.1-2.56.12a42.85,42.85,0,0,0,0,7.36c.17,2.08,1.36,3.72,4.31,3.67s3.74-2.41,3.91-4.55-.06-6.65-.06-6.65"/>
      <path class="cls-4" d="M41.94,34.41h4.11"/>
    </g>
  </g>
</svg>
