<svg xmlns="http://www.w3.org/2000/svg" width="64" height="64" viewBox="0 0 64 64">
  <defs>
    <style>
      .cls-1 {
        fill: #fce1dc;
      }

      .cls-2 {
        fill: none;
        stroke: #3b5473;
        stroke-miterlimit: 10;
      }
    </style>
  </defs>
  <title>i-Profile</title>
  <g id="fill_under" data-name="fill under">
    <path class="cls-1" d="M47.89,29.18C49,45.28,39.87,56,32.14,55.32,28,55,29.8,50.79,27.31,51.19c-1.71.26-1.72,2.88-4,2.48C18,52.73,16.08,40.76,16,31.47c-.08-10.13,4.34-20.24,14.9-21.26S47,16.41,47.89,29.18Z"/>
  </g>
  <g id="Stroke">
    <path class="cls-2" d="M25.82,43c.61-4.22-2.47-4.41-3.22-10.92a16.47,16.47,0,0,1,1.73-10A9.56,9.56,0,0,1,33,16.86a10.7,10.7,0,0,1,9.35,5.36,21.5,21.5,0,0,1,2,6"/>
    <path class="cls-2" d="M42,34.14a13.82,13.82,0,0,0-1.21-6.81c-1-2.1-3.66-5.2-5.92-6a5.61,5.61,0,0,0-5.94,1.44c-1.75,1.59-2.26,5.47-1,7.44"/>
    <path class="cls-2" d="M30.11,27.7c-.43,1.23,0,2.56.1,3.85s.18,2.8-1.39,3.38A2.7,2.7,0,0,1,25.87,34,5.39,5.39,0,0,1,24.93,31"/>
    <path class="cls-2" d="M37.67,27.65c4.33,5.77.16,13.62-2.33,15.49"/>
    <path class="cls-2" d="M39.16,43.38c2.34-4.91,6.86-4.89,5.22-14.24"/>
    <path class="cls-2" d="M23.73,16.51c-2.62,3.36-4.52,7.87-3.93,12.24"/>
    <path class="cls-2" d="M19.48,39.9c1.56,3.9,5.87,6.79,8.82,7.63"/>
    <path class="cls-2" d="M43.33,19.37a12.28,12.28,0,0,0-12.85-6.31"/>
    <path class="cls-2" d="M44,41.27a15.33,15.33,0,0,1-12.15,9.79"/>
    <path class="cls-2" d="M20,31.38c.23,5.64,2.5,8.66,3.79,10.06"/>
    <path class="cls-2" d="M29.16,44c.55-.51,4-.51,4.49.06S29.07,47.25,29.82,48c1,.92,6.42-.93,7.65-2.78"/>
    <path class="cls-2" d="M31.39,25.88c2.23-1,5.22,3.43,5,8.77S33,41.2,31.63,41.48c-2.52.53-4.46-1.75-3.23-3.57,1-1.55,4-.56,4,.63"/>
    <path class="cls-2" d="M32.91,28.86a19.26,19.26,0,0,1,.29,6.94"/>
    <path class="cls-2" d="M34.22,24.41a4.36,4.36,0,0,1,2.8,2"/>
    <path class="cls-2" d="M20.84,47.12c1,1.8,3,3.28,4.59,2.58"/>
  </g>
</svg>
